#N canvas 401 150 440 497 10;
#X obj 113 364 outlet;
#X obj 229 41 inlet;
#X obj 113 39 inlet;
#X text 180 441 1997-2004 by Karlheinz Essl;
#X obj 136 166 +;
#X obj 164 166 f;
#X obj 257 119 f \$1;
#X obj 136 296 list prepend;
#X obj 233 296 t a;
#X obj 113 66 t b a b b;
#X obj 113 321 list;
#X text 196 169 accumulate with every element;
#X obj 134 118 list-abs/list-drip;
#X connect 1 0 6 1;
#X connect 2 0 9 0;
#X connect 4 0 5 0;
#X connect 4 0 7 0;
#X connect 5 0 4 1;
#X connect 6 0 5 0;
#X connect 7 0 8 0;
#X connect 7 0 10 1;
#X connect 8 0 7 1;
#X connect 9 0 10 0;
#X connect 9 1 12 0;
#X connect 9 2 7 1;
#X connect 9 3 6 0;
#X connect 10 0 0 0;
#X connect 12 0 4 0;
