#N canvas 225 155 465 400 10;
#X declare -lib zexy;
#X obj 83 45 inlet;
#X obj 99 261 list store;
#X msg 159 157 append \$1;
#X obj 101 176 + 1;
#X obj 213 37 inlet;
#X obj 83 96 b;
#X obj 191 8 declare -lib zexy;
#X obj 132 106 drip;
#X obj 132 131 t b a;
#X obj 99 303 outlet;
#X msg 87 154 1;
#X obj 83 75 route clear list bang;
#X obj 165 99 t b b;
#X obj 72 176 f 1;
#X obj 256 99 loadbang;
#X obj 256 120 int \$1;
#X obj 70 218 sel;
#X obj 73 280 route bang;
#X obj 70 239 t b b;
#X connect 0 0 11 0;
#X connect 1 0 17 0;
#X connect 2 0 1 0;
#X connect 3 0 13 1;
#X connect 4 0 5 0;
#X connect 4 0 15 0;
#X connect 5 0 1 1;
#X connect 5 0 10 0;
#X connect 7 0 8 0;
#X connect 8 0 13 0;
#X connect 8 1 2 0;
#X connect 10 0 13 1;
#X connect 11 0 5 0;
#X connect 11 1 7 0;
#X connect 11 2 12 0;
#X connect 11 3 8 0;
#X connect 12 0 5 0;
#X connect 12 1 1 0;
#X connect 13 0 16 0;
#X connect 14 0 15 0;
#X connect 15 0 16 1;
#X connect 16 0 18 0;
#X connect 16 1 3 0;
#X connect 17 1 9 0;
#X connect 18 0 10 0;
#X connect 18 0 1 1;
#X connect 18 1 1 0;
