#N canvas 50 61 246 246 10;
#X obj 81 168 outlet;
#X obj 49 28 inlet;
#X obj 114 115 - 1;
#X obj 49 50 t a a;
#X obj 49 140 list split;
#X obj 114 85 list-abs/list-len;
#X connect 1 0 3 0;
#X connect 2 0 4 1;
#X connect 3 0 4 0;
#X connect 3 1 5 0;
#X connect 4 1 0 0;
#X connect 5 0 2 0;
