#N canvas 458 363 493 363 10;
#X obj 131 15 inlet;
#X obj 131 272 outlet;
#X obj 254 171 pow;
#X obj 254 119 t b a;
#X msg 254 147 10;
#X obj 254 92 * -1;
#X obj 269 42 loadbang;
#X obj 254 71 f \$1;
#X obj 254 19 inlet;
#X obj 131 231 list-abs/list-round;
#X connect 0 0 9 0;
#X connect 2 0 9 1;
#X connect 3 0 4 0;
#X connect 3 1 2 1;
#X connect 4 0 2 0;
#X connect 5 0 3 0;
#X connect 6 0 7 0;
#X connect 7 0 5 0;
#X connect 8 0 7 0;
#X connect 9 0 1 0;
