#N canvas 350 170 450 300 10;
#X obj 75 39 inlet;
#X obj 31 47 inlet;
#X obj 31 78 b;
#X obj 31 111 sequence;
#X obj 31 173 int;
#X obj 31 211 anti-bis;
#X obj 31 232 outlet;
#X obj 71 75 listreg;
#N canvas 435 145 450 300 transp 0;
#X obj 98 62 inlet;
#X obj 131 122 first;
#X obj 88 88 t l l;
#X obj 77 134 last;
#X obj 85 158 int;
#X obj 109 197 -;
#X obj 121 158 int;
#X obj 109 218 outlet;
#X connect 0 0 2 0;
#X connect 1 0 6 0;
#X connect 2 0 3 0;
#X connect 2 1 1 0;
#X connect 3 0 4 0;
#X connect 4 0 5 0;
#X connect 5 0 7 0;
#X connect 6 0 5 1;
#X restore 125 123 pd transp;
#X obj 86 172 listreg;
#X obj 81 146 t b b;
#X obj 128 143 transpose-row;
#X obj 118 101 t l l;
#X obj 144 208 outlet;
#X connect 0 0 7 0;
#X connect 1 0 2 0;
#X connect 2 0 3 0;
#X connect 3 0 4 0;
#X connect 3 1 10 0;
#X connect 3 2 10 0;
#X connect 4 0 5 0;
#X connect 5 0 6 0;
#X connect 5 1 2 0;
#X connect 7 0 3 1;
#X connect 7 0 12 0;
#X connect 8 0 11 0;
#X connect 9 0 7 0;
#X connect 10 0 9 0;
#X connect 10 1 13 0;
#X connect 11 0 9 1;
#X connect 12 0 8 0;
#X connect 12 1 11 1;
