#N canvas 612 165 450 300 10;
#X obj 47 203 pitch-from-row-mod;
#X text 14 40 Generates pitch classes from a row which underlies the
principle of "row-modulation": the last note of the row is the first
note of its next transposition (cf. Anton Webern and Leopold Spinner
\, "Reihenverschneidung").;
#X obj 48 123 tgl 15 0 empty empty start/stop 17 7 0 10 -262144 -1
-1 0 1;
#X obj 48 143 metro 250;
#X obj 48 164 bng 15 250 50 0 empty empty rhythm_bangs 17 7 0 10 -262144
-1 -1;
#X obj 160 113 loadbang;
#X obj 160 134 bng 15 250 50 0 empty empty generates_random_row 17
7 0 10 -262144 -1 -1;
#X obj 160 155 random-row;
#X obj 200 176 show;
#X msg 200 197 0 9 3 5 6 11 8 1 4 7 2 10;
#X obj 307 143 bng 15 250 50 0 empty empty empty 17 7 0 10 -262144
-1 -1;
#X obj 164 227 bng 15 250 50 0 empty empty empty 17 7 0 10 -262144
-1 -1;
#N canvas 610 39 450 300 play-it 0;
#X obj 37 37 inlet;
#X obj 37 58 + 60;
#X obj 37 79 show-pitchclass;
#X obj 37 100 outlet;
#X connect 0 0 1 0;
#X connect 1 0 2 0;
#X connect 2 0 3 0;
#X restore 47 224 pd play-it;
#X msg 47 245 Bb;
#X connect 0 0 12 0;
#X connect 0 1 11 0;
#X connect 2 0 3 0;
#X connect 3 0 4 0;
#X connect 4 0 0 0;
#X connect 5 0 6 0;
#X connect 6 0 7 0;
#X connect 7 0 8 0;
#X connect 7 0 0 1;
#X connect 8 0 9 0;
#X connect 10 0 8 1;
#X connect 12 0 13 0;
