#N canvas 451 340 460 352 10;
#X text 36 294 vs.2;
#X text 36 308 1993/94 by Karlheinz Essl;
#X obj 39 260 outlet;
#X obj 180 258 outlet;
#X obj 39 38 inlet;
#X obj 173 37 inlet;
#X obj 39 139 f 0;
#X obj 70 138 + 1;
#X obj 99 138 mod 1;
#X msg 55 109 0;
#X obj 173 63 t b a a;
#X obj 180 216 select;
#X obj 217 193 - 1;
#N canvas 0 0 450 300 nth 0;
#X obj 113 129 list;
#X obj 113 101 t b a;
#X obj 113 80 inlet;
#X obj 157 79 inlet;
#X obj 113 178 outlet;
#X obj 113 155 list-abs/list-idx;
#X connect 0 0 5 0;
#X connect 1 0 0 0;
#X connect 1 1 5 1;
#X connect 2 0 1 0;
#X connect 3 0 0 1;
#X connect 5 0 4 0;
#X restore 39 215 pd nth;
#X text 149 139 modulo-count up to list length;
#X text 246 261 bang on last element;
#X text 52 237 lookup element;
#X obj 217 91 list-abs/list-len;
#X obj 39 171 t f f f;
#X obj 251 231 outlet;
#X connect 4 0 6 0;
#X connect 5 0 10 0;
#X connect 6 0 7 0;
#X connect 6 0 18 0;
#X connect 7 0 8 0;
#X connect 8 0 6 1;
#X connect 9 0 6 1;
#X connect 10 0 9 0;
#X connect 10 1 13 1;
#X connect 10 2 17 0;
#X connect 11 0 3 0;
#X connect 12 0 11 1;
#X connect 13 0 2 0;
#X connect 17 0 8 1;
#X connect 17 0 12 0;
#X connect 18 0 13 0;
#X connect 18 1 11 0;
#X connect 18 2 19 0;
