#N canvas 378 174 345 360 10;
#X obj 35 213 outlet;
#X obj 35 20 inlet;
#X obj 79 207 outlet;
#X obj 72 50 inlet;
#X obj 127 207 outlet;
#X obj 35 128 t a a;
#N canvas 0 0 450 300 nth 0;
#X obj 113 129 list;
#X obj 113 101 t b a;
#X obj 113 80 inlet;
#X obj 157 79 inlet;
#X obj 113 178 outlet;
#X obj 113 155 list-abs/list-idx;
#X connect 0 0 5 0;
#X connect 1 0 0 0;
#X connect 1 1 5 1;
#X connect 2 0 1 0;
#X connect 3 0 0 1;
#X connect 5 0 4 0;
#X restore 35 174 pd nth;
#X text 39 263 vs. 3;
#X text 44 286 1993-95 by Karlheinz Essl;
#X obj 35 108 xrandom;
#X obj 79 76 list-abs/list-len;
#X connect 1 0 9 0;
#X connect 3 0 6 1;
#X connect 3 0 10 0;
#X connect 5 0 6 0;
#X connect 5 1 4 0;
#X connect 6 0 0 0;
#X connect 9 0 5 0;
#X connect 9 1 2 0;
#X connect 10 0 9 1;
