#N canvas 136 422 383 299 10;
#X obj 96 182 anti-bis;
#X text 160 232 vs. 1.1;
#X text 160 217 1994 by Karlheinz Essl;
#X text 177 95 must not be < 1!!!;
#X obj 139 91 - 1;
#X obj 96 215 outlet;
#X obj 139 31 inlet;
#X obj 96 32 inlet;
#X obj 139 57 int \$1;
#X obj 96 119 b;
#X obj 96 57 t a a;
#X obj 96 150 cyclone/drunk 5 2;
#X connect 0 0 5 0;
#X connect 0 1 9 0;
#X connect 4 0 11 1;
#X connect 6 0 8 0;
#X connect 7 0 10 0;
#X connect 8 0 4 0;
#X connect 9 0 11 0;
#X connect 10 0 9 0;
#X connect 10 1 8 0;
#X connect 11 0 0 0;
